<svg xmlns="http://www.w3.org/2000/svg" viewBox="0 0 551.33 337.2"><defs><style>.cls-1{fill:#be1622;}.cls-2{fill:#1d1d1b;}</style></defs><g id="Capa_2" data-name="Capa 2"><g id="Capa_1-2" data-name="Capa 1"><path class="cls-1" d="M524.71,210a43.87,43.87,0,0,1,24-28c-21.22,31.82-4,77-20.4,111.53a91.32,91.32,0,0,0-10.49-29.14c-18.23,3.67-30.8,24.77-25.34,42.55-6.72,2.6-12.77-5.35-14.51-12.35s-2.88-15.51-9.39-18.61c-1.34,22.93-22.45,42.94-45.43,43,4.3-12.48-.87-27.56-11.93-34.76.79,15.11,0,33.35-13.08,41-8.92,5.21-20.14,3.11-30.23.86-1.65-.37-3.41-.8-4.52-2.08-1.62-1.87-1.17-4.68-.81-7.13,2.74-18.83-6.77-38.87-23.09-48.65,4.5,10.59-4.74,21.6-12.93,29.68s-16.67,20.14-10.8,30c-17.28-5-30-22.63-29.27-40.6-13.87,10.35-17.77,31.85-8.42,46.41-15.61,4.74-34-7.66-35.42-23.9-.76-8.48,2.43-16.91,2-25.42-.67-12.84-9.63-24-20.35-31.12,6.44,9.28,7.4,21.5,5.1,32.56s-7.53,21.26-12.7,31.3c-17-4.65-28.13-24.69-23-41.6-14.72,10-20.65,31.13-13.29,47.36-10.3,3.79-20.95-6.67-23.15-17.43s.76-21.88.34-32.86a54.45,54.45,0,0,0-27.26-44.54,63.77,63.77,0,0,1,4.59,57.13c-26.1-5.9-46.17-31.8-45.37-58.55C74,241,68.37,265.28,76.11,285c-8,4.52-18.56.63-24.5-6.32s-8.35-16.17-10.59-25c-9.41,4.88-14.68,15.7-15.21,26.29s3,21,7.58,30.55A102.1,102.1,0,0,1,2.91,228.67C5.11,205.12,15.52,183,18.4,159.51a110.27,110.27,0,0,0-7-54c9.67.65,14.67,11.47,18.37,20.43A192.49,192.49,0,0,0,55,169.72a46.59,46.59,0,0,1,36.65-24.6c-7,8.13-14.36,16.82-16.16,27.42s-2.59,22.88,8.1,24a60.17,60.17,0,0,1,35.82,4.83c4.45,2.1,8.83,4.81,13.74,5.06,6.11.31,11.83-3.33,15.87-7.93,8.83-10,11.26-24.66,8.44-37.73S147.18,136,138.2,126.1c-10.64-11.73-24-22.36-28-37.7-4.69-18.12,7.8-38.85,26-43.19-11.43,3.9-14,19.92-8.19,30.53,6,11.06,17.84,17.12,29.84,18.93,4.15.63,8.56,2,12.26,0,2.78-1.46,4.56-4.27,5.94-7.09,6.51-13.36,6.45-29.17,2.85-43.58s-10.5-27.77-17.33-41c9-2.41,18.76,2.17,24.88,9.2s9.29,16.11,11.86,25.07c5.29,18.38,8.71,38,4.4,56.58s-15.9,34.61-23.38,52.19-10.14,39.75,2.15,54.38c6.77,8.05,21.25,11.53,27,2.71,4.64-7.13.21-16.38-1.07-24.8-2-13.42,5.42-27.75,17.59-33.76-7.05,6.53-7.28,19-.48,25.82a10.84,10.84,0,0,0,6.71,3.43c7.9.5,11.13-10,11.07-17.93a153,153,0,0,0-5.35-39c-2.33-8.58-5.44-17.47-3.49-26.15S245.07,74.57,253,78.53c-3.35,4.41-5.75,9.93-4.9,15.4s5.8,10.48,11.31,9.94c2.85-.27,5.38-1.9,7.62-3.66a50.35,50.35,0,0,0,18.6-43.75,50.37,50.37,0,0,0-26.92-39.19c15.87-1.58,31,10.69,35.88,25.88S295.53,75.3,287.4,89c-7.08,11.93-17.14,22-23.65,34.2s-8.78,28.43-.15,39.29c3,3.83,7.83,6.82,12.64,5.94,7.64-1.39,10.49-11.14,9.35-18.82s-4.63-15.25-3.33-22.91a19.35,19.35,0,0,1,17.59-15.6,13.31,13.31,0,0,0,12.26,23.55c7.33-3.12,10.34-12,10.62-20a51.2,51.2,0,0,0-10-32.13c15.31,5,22.42,23.73,19.93,39.63s-12.08,29.65-21.05,43S293.72,193,292.9,209.09a47.82,47.82,0,0,0,19.48,40.49c4,2.85,9.67,5,13.47,1.92a10.16,10.16,0,0,0,2.95-4.82c3.4-10.34-.66-21.44-3.12-32s-2.51-23.62,6.14-30.23a20.44,20.44,0,0,0,3.75,18.33c9-7.44,10-20.52,11.61-32.08s6.22-24.9,17.49-27.92c-7.95,6.17-5.48,21.09,4,24.37,10-12.22,13.54-28.88,11.62-44.52s-9-30.33-18.2-43.1c19.69,8.53,32.75,30.35,30.95,51.73-1.13,13.45-7.42,25.82-13.27,38s-11.5,25-11.2,38.48,8.31,27.75,21.41,30.95c2.5.61,5.34.74,7.42-.76s2.89-4.47,3.28-7.13a65.66,65.66,0,0,0-8.91-43.41c11,0,21.3,8.91,22.88,19.79,1.27,8.84-2.59,17.5-4.5,26.22s-1,19.54,6.63,24.17c3.08,1.87,7.5,2.2,10-.41a10.63,10.63,0,0,0,2.06-3.8A75.91,75.91,0,0,0,433,219c-1.22-11-4.88-22-3.66-33s9.8-22.59,20.88-21.68c-6.35,7.72-6.24,20,.23,27.62,3.09,3.64,8.17,6.28,12.61,4.54,2.59-1,4.44-3.3,6-5.59,12.36-18.07,13.77-43,3.53-62.39a69.58,69.58,0,0,1,49.2,85.17"/><path class="cls-2" d="M527.13,210.68A41.75,41.75,0,0,1,550,184.13l-3.42-3.42c-16.85,25.68-10.39,58.07-13.83,86.92a80.75,80.75,0,0,1-6.57,24.61l4.57.6A95.91,95.91,0,0,0,520,263.1a2.57,2.57,0,0,0-2.83-1.15c-19.66,4.22-32.73,26.36-27.08,45.62l1.75-3.08c-7.73,2.6-11-8.82-12.29-14.19-1.49-6.35-3.46-13.29-9.69-16.51a2.53,2.53,0,0,0-3.76,2.16c-1.48,21.75-21.18,40.23-42.93,40.53l2.41,3.16c4.54-13.8-1.08-29.52-13.08-37.58a2.51,2.51,0,0,0-3.76,2.16c.8,15.87-.15,39.62-20.73,41.57-5.31.5-10.63-.31-15.81-1.37-2.06-.42-6.33-.62-7.24-2.81-.83-2,.22-5,.41-7.13A52.38,52.38,0,0,0,340.79,266c-1.73-1.06-4.49.74-3.67,2.82,4.81,12.28-8.08,22.37-15.27,30.38s-14.08,19.36-8.2,29.94l2.82-3.67c-16.38-4.9-28-21.14-27.44-38.19.05-1.74-2.23-3.33-3.76-2.16C270.33,296.59,265.9,318.9,276,335l1.49-3.68c-12.3,3.53-26.41-4-30.93-15.94-3-7.9-.47-16.29.4-24.35a36.61,36.61,0,0,0-4.28-22c-4-7.3-10.18-13.22-17-17.85-2.05-1.38-4.8,1.37-3.42,3.42,13.11,19.48,1.83,43-7.59,61.34l2.82-1.15c-15.88-4.55-25.85-22.68-21.27-38.53.57-2-1.85-4.09-3.68-2.82-16,11.14-22,33-14.19,50.78l1.5-3.67c-7.28,2.43-13.92-2.78-17.44-8.84-4.48-7.7-3.5-17.11-2.8-25.62.67-8.14,1-16.13-.91-24.13a57.21,57.21,0,0,0-27-36,2.52,2.52,0,0,0-3.42,3.42,61.78,61.78,0,0,1,4.34,55.21l3.08-1.75c-25.2-5.9-44.12-30.26-43.54-56.14a2.52,2.52,0,0,0-4.26-1.77c-16.21,15.19-22,40.05-14.1,60.82l1.15-2.82c-7.28,3.89-16.11.11-21.21-5.63-5.91-6.66-8.09-15.84-10.21-24.24a2.53,2.53,0,0,0-3.67-1.49c-9.11,4.92-14.6,14.55-16.06,24.61-1.8,12.39,2.31,24.59,7.53,35.65l3.92-3A100,100,0,0,1,5,239.4c-.55-29.6,14.49-56.57,16.44-85.86a112.77,112.77,0,0,0-7.65-48.69L11.4,108c5.51.52,9.14,5.14,11.71,9.62,3,5.32,5.06,11.16,7.62,16.72A194.3,194.3,0,0,0,52.89,171c1.06,1.38,3.35,1.83,4.31,0a44.34,44.34,0,0,1,34.49-23.36l-1.77-4.26c-7.23,8.35-14.79,17.31-16.8,28.51-1.31,7.28-3.05,17.92,2.81,23.79a11.36,11.36,0,0,0,4.75,2.8c2.66.81,5,.15,7.74-.09A58.3,58.3,0,0,1,107,199.62c6.11,1.43,11.42,4.16,17.09,6.72,5,2.24,10.17,3.41,15.49,1.65,10-3.3,16.67-13.21,19.59-22.88,3.15-10.44,2.41-21.81-1.19-32-3.79-10.77-10.34-20.32-18-28.74-7.29-8-15.74-15.24-21.75-24.37-6.37-9.68-8.43-20.77-4.13-31.73,3.9-9.95,12.33-18,22.75-20.62l-1.32-4.82c-9.85,3.6-14,14.18-12.81,24.08,1.37,11.79,10.15,21.18,20.63,26,5.84,2.7,12,4,18.32,4.94,3,.45,6.06.64,8.89-.61a15.22,15.22,0,0,0,6.84-6.83c6.83-12.15,7.52-27.06,5.26-40.52-2.87-17.12-11-32.82-19-48.07L162.21,5.5c11.09-2.71,21.17,5.17,26.48,14.25,5.91,10.09,8.74,22.41,11,33.77,2.56,12.7,3.54,26,.79,38.76-2.49,11.49-7.87,22-13.31,32.32-9.74,18.49-20,38.55-15.78,60.14,1.74,8.93,6.51,18,14.59,22.73,6.73,3.91,16.44,5.35,22.55-.49,9.47-9,.91-22.56,1-33.23a30.87,30.87,0,0,1,16.69-26.93l-3-3.93c-6.55,6.36-8,16.76-3.8,24.82,4,7.7,14.29,12.34,20.6,4.54s5-19.49,4.16-28.72a158.39,158.39,0,0,0-2.88-19.14c-1.34-6.27-3.35-12.35-4.78-18.59C235,99.37,234.25,92,238.14,86.27c2.85-4.22,8.47-7.93,13.63-5.58l-.9-3.42c-5.91,8-8.43,20.47,1.07,27,9.07,6.23,18.8-2.82,24.34-9.63A52.3,52.3,0,0,0,283,38.53a52.89,52.89,0,0,0-23-23.42l-1.27,4.66c17.42-1.49,31.75,13.05,34.81,29.37,1.78,9.51.11,19.45-3.32,28.39-3.53,9.21-9.37,17.17-15.3,25-10.62,13.92-21.81,29.45-19.05,48,1.2,8,5.78,16.42,13.59,19.59,7.17,2.9,14.12-.91,17-7.72,4-9.36-.08-18.33-1.64-27.71-.84-5.06-.28-10.14,2.88-14.32a16.89,16.89,0,0,1,12.12-6.7L298.59,109a16.56,16.56,0,0,0-7.07,17c1.28,6.45,7,11.11,13.34,12,6.88,1,13.06-2.67,16.49-8.54,3.77-6.44,4.4-14.37,3.64-21.64a54.39,54.39,0,0,0-10.12-26.45L312,85c15.76,5.39,20.82,25,17.59,39.74-4.38,20-19,35.58-28.85,53-4.95,8.73-8.91,18.08-10.1,28.11a49.54,49.54,0,0,0,4.4,26.46,48.34,48.34,0,0,0,16.71,19.94c3.39,2.23,7.84,4,11.95,3,4.31-1,6.61-4.82,7.76-8.84,3.29-11.55-1.58-23.06-3.82-34.3-1.77-8.88-1.79-19.77,5.91-25.92l-4.18-2.43a23.46,23.46,0,0,0,4.39,20.76c.88,1.12,2.62.79,3.54,0,9.36-8,10.59-20.94,12.15-32.39,1.37-10.12,4.65-23.71,15.84-27L362.9,141c-9.48,7.78-6,24.38,5.15,28.55a2.42,2.42,0,0,0,2.43-.64c9.9-12.38,14-28.42,12.58-44.11-1.53-17-8.92-32.81-18.78-46.54l-3.42,3.42a51,51,0,0,1,28.45,34.14c4.57,18.22-3.48,35.18-11.23,51.26-7.47,15.48-15.39,33.17-10.46,50.64,1.93,6.84,5.69,13.44,11.23,18,5,4,13.74,8.43,19.85,4.36,3.64-2.42,4.3-7.13,4.76-11.11a64.86,64.86,0,0,0,0-15.19A69.32,69.32,0,0,0,394,186.07l-2.16,3.76A21.43,21.43,0,0,1,408,197.92c4.5,5.58,5.16,12.41,3.81,19.27-2.34,11.89-8.71,24.94-1.89,36.64,2.68,4.6,7.73,8.16,13.23,7.58,7-.74,8.74-8.34,10.26-14.08a78.57,78.57,0,0,0,2.55-22.84c-.3-8-2.16-15.78-3.4-23.67s-1.72-16.47,2.24-23.84c3.15-5.84,8.51-10.56,15.48-10.16l-1.77-4.27A25,25,0,0,0,444,184.89c2.06,7.26,8.51,15.19,16.82,14.61s13.23-11,16.08-17.81a64.94,64.94,0,0,0,5-25.77,63.67,63.67,0,0,0-7.15-28.68L472,130.92A67.07,67.07,0,0,1,519.4,213c-.81,3.11,4,4.44,4.83,1.33a72.35,72.35,0,0,0-51-88.25,2.53,2.53,0,0,0-2.82,3.68,59.46,59.46,0,0,1,.54,52.88c-1.8,3.66-4.14,8.67-7.71,10.92-4.16,2.62-9.08-.7-11.61-4.09a19.87,19.87,0,0,1,.33-23.4,2.53,2.53,0,0,0-1.77-4.26c-12.24-.7-21.18,10.9-23.08,22-1.28,7.46-.09,15.08,1.24,22.45,1.42,7.87,2.81,15.64,2.52,23.68a72,72,0,0,1-4.46,22.68c-2.78,7.41-10.57,2.52-12.91-2.56-6-13,4.26-26.84,3.89-40a26.41,26.41,0,0,0-25.62-25.23,2.53,2.53,0,0,0-2.16,3.77,64.4,64.4,0,0,1,8.55,23.5,62.36,62.36,0,0,1,.63,12.21c-.15,3.27.09,9.48-3,11.56s-8-.3-10.7-1.86a24.86,24.86,0,0,1-7.43-6.72,34.41,34.41,0,0,1-6.6-18.86c-.8-18.24,9.64-34.47,16.75-50.53,6.47-14.6,10.32-30,5.61-45.73C389,97,377.94,83.78,363.39,77.33c-2-.88-5.05,1.15-3.42,3.43,9.13,12.72,16.38,27.37,18,43.13,1.5,14.55-1.78,29.88-11,41.45l2.44-.64c-8-3-9.25-15-2.94-20.2,2-1.62-.16-4.84-2.43-4.17-11.46,3.33-16.56,15.22-18.64,26-2.27,11.8-1.63,26.1-11.57,34.63h3.54a18.14,18.14,0,0,1-3.11-15.89c.7-2.6-2.32-3.91-4.18-2.43-15,12-5.7,33.16-3.1,48.28.88,5.17,1.19,10.9-.84,15.86-2.17,5.33-7.52,3.82-11.44,1.32-7.45-4.75-13.21-12.66-16.32-20.85-15.35-40.41,32-68.45,36.89-105.76,2.15-16.46-5.18-35.63-21.87-41.33-2-.67-4.11,1.91-2.82,3.67a49.59,49.59,0,0,1,9.39,23.47c.8,6.93.48,14.91-3.69,20.81a11.2,11.2,0,0,1-16.84,2c-5.06-4.61-3.82-13.19,1.71-16.86,1.9-1.27,1.38-4.85-1.27-4.66a22.11,22.11,0,0,0-18.38,12.46c-4.22,9-.36,18.23,1.38,27.29,1.12,5.84.37,16.56-7.27,17.67-4.68.69-8.89-3.13-11.23-6.77A25.16,25.16,0,0,1,260.51,147c-1.11-19.3,13.07-33.95,23.56-48.48C295,83.48,302.3,64.79,298,46c-4-17.59-20.51-32.86-39.26-31.25-2.27.2-3.65,3.43-1.26,4.66,14.44,7.44,24.77,22.37,25.81,38.7A48.11,48.11,0,0,1,271.11,93c-2.77,3.07-6.26,6.68-10.26,8-4.52,1.52-8.73-2.06-10-6.27-1.57-5.3,1.25-10.79,4.32-14.95a2.51,2.51,0,0,0-.9-3.42c-8.15-3.7-16.81,1.06-21.08,8.34-5.75,9.83-1.77,21.85,1,31.94a152,152,0,0,1,5.48,36.22c.15,5.3-.34,20-9,18.44-5.11-.95-8.09-7-8.57-11.69a16,16,0,0,1,4.62-13.19c2.1-2-.56-5.19-3-3.93a35.78,35.78,0,0,0-17.64,21.38,33.88,33.88,0,0,0-1.21,14.43c.74,5.39,2.83,10.6,3.12,16,.26,4.73-1.48,9.49-6.32,11-3.88,1.24-8.34.23-11.89-1.56-8.72-4.38-13-14.42-14-23.71-2.41-22.59,10.49-42.07,20.1-61.36,5.19-10.43,9.38-21.2,10.74-32.84,1.47-12.45-.06-25.09-2.79-37.25s-5.94-25.45-13.5-35.54c-6.77-9-17.95-15.24-29.41-12.44a2.52,2.52,0,0,0-1.49,3.67c11.46,22.14,24.23,47.23,17.76,72.88-1.24,4.93-3.34,12.85-8.32,15.33-2.62,1.31-5.82.48-8.54,0a78,78,0,0,1-8.15-1.67c-9.74-2.78-19.63-9.23-23.22-19.14-3-8.32-1.5-20.69,7.92-24.13,3-1.09,1.84-5.62-1.32-4.82-17.08,4.29-29.54,21.55-28.8,39.09.89,21.13,20,34.3,32.42,49.08,13.55,16.08,23.22,39.49,12.34,59.63A27.84,27.84,0,0,1,141,201.9c-5.48,3.07-10.72,1.94-16.12-.67-10.4-5-20.9-8.39-32.6-8.09-4.56.12-10.81,2.55-13.74-2.24-2.19-3.58-1.72-8.65-1.32-12.62A40.73,40.73,0,0,1,82,162.22c3.13-5.6,7.32-10.5,11.5-15.33,1.27-1.46.57-4.49-1.76-4.27a49.44,49.44,0,0,0-38.8,25.83H57.2a194.66,194.66,0,0,1-23.75-40.18C29,118.05,24.37,104.23,11.4,103A2.51,2.51,0,0,0,9,106.18a109.36,109.36,0,0,1,7.59,45.36c-.73,15.18-5.18,29.74-9.27,44.27C3.42,209.62-.08,223.67,0,238.11a105.11,105.11,0,0,0,31.62,74.18c2.12,2.06,5.11-.53,3.93-3-4.61-9.77-8.39-20.71-7-31.67,1.09-8.87,5.76-17.43,13.77-21.76l-3.67-1.49c2.51,9.93,5.35,20.92,13.15,28.13,6.83,6.32,17.06,9.3,25.61,4.73a2.52,2.52,0,0,0,1.15-2.83,52.17,52.17,0,0,1,12.81-56l-4.27-1.77c-.63,28,19.92,54.58,47.21,61a2.57,2.57,0,0,0,3.07-1.74,66.51,66.51,0,0,0-4.84-59.06l-3.42,3.42a52.43,52.43,0,0,1,25.44,36.58c2.82,16.77-5.85,35.8,5.66,50.57,4.94,6.33,12.85,10.62,20.9,7.93a2.55,2.55,0,0,0,1.49-3.67c-6.67-15.15-1.15-34.5,12.4-43.94l-3.68-2.82c-5.33,18.46,6.32,39.39,24.77,44.67a2.53,2.53,0,0,0,2.82-1.15c10.26-19.92,21.79-45.3,7.6-66.38l-3.42,3.42a46.74,46.74,0,0,1,15.83,17.16c4.31,8.46,3.26,16.82,2,25.88-1.1,7.66-1.19,15.06,2.55,22a32.41,32.41,0,0,0,13.82,13.27,29.62,29.62,0,0,0,21.55,2.35,2.53,2.53,0,0,0,1.5-3.67c-8.48-13.56-5.3-33.18,7.52-43L284,287.31c-.6,19.27,12.67,37.49,31.11,43a2.53,2.53,0,0,0,2.82-3.68c-6.12-11,6-22.32,12.88-29.51,7.34-7.68,15.48-18.45,11.1-29.61l-3.67,2.83a46.7,46.7,0,0,1,19,22.71,47.28,47.28,0,0,1,3.27,14.31,45.61,45.61,0,0,1-.1,7.11c-.23,2.53-.89,5.07-.44,7.62,1,5.71,7.12,6.39,11.85,7.32,5.61,1.11,11.4,1.94,17.12,1.28a25.83,25.83,0,0,0,21.17-15.76c4.16-9.57,4.19-20.48,3.67-30.72L410,286.38a28.35,28.35,0,0,1,10.78,31.93,2.53,2.53,0,0,0,2.41,3.17c24.59-.34,46.27-21.05,47.93-45.53l-3.77,2.15c7.15,3.7,6.6,13.48,9.2,20s8.79,13.8,16.64,11.17a2.55,2.55,0,0,0,1.74-3.08c-4.92-16.78,6.54-35.81,23.59-39.47l-2.82-1.15a91.75,91.75,0,0,1,10.24,28.55c.37,2,3.68,2.5,4.57.6,13-28,5.31-59.24,11.27-88.55a65,65,0,0,1,9.13-23c1.5-2.28-1.35-4.37-3.42-3.42a46.66,46.66,0,0,0-25.19,29.54c-.88,3.1,4,4.42,4.83,1.33Z"/></g></g></svg>